# xmcd
#
# Track frame offsets:
#	150
#	16251
#	28072
#	47869
#	67845
#	81171
#	103007
#	125499
#	139513
#	156753
#	175305
#	195468
#
# Disc length: 2786 seconds
#
# Revision: 1
# Processed by: cddbd v1.5PL3 Copyright (c) Steve Scherf et al.
# Submitted via: audiograbber 1.83.01
#
DISCID=980ae00c
DTITLE=Divine Excess - Object In Mirror Are Louder Than They Appear
DYEAR=2001
DGENRE=Blues
TTITLE0=Runnin' Down The Road
TTITLE1=Legal Ground
TTITLE2=2 Eggs
TTITLE3=Find My Own Way
TTITLE4=Baby We're Through
TTITLE5=White Water
TTITLE6=Love Machine
TTITLE7=You Can Do Anything
TTITLE8=Dr. K
TTITLE9=Baby Up And Left Me
TTITLE10=Stay Out Of My Life
TTITLE11=Just One More Time
EXTD=
EXTT0=
EXTT1=
EXTT2=
EXTT3=
EXTT4=
EXTT5=
EXTT6=
EXTT7=
EXTT8=
EXTT9=
EXTT10=
EXTT11=
PLAYORDER=
